PathFileType	4	(X/Y/Z)	C:\Users\WrightLab\Desktop\Jo\P3_10.trc
DataRate	CameraRate	NumFrames	NumMarkers	Units	OrigDataRate	OrigDataStartFrame	OrigNumFrames
100.00	100.00	       21	19	mm	100.00	396	       633
Frame#	Time	Headset_Front			Headset_Back			Headset_Left			Headset_Right			Left_Shoulder			Right_Shoulder			Sternum			C7			Left Elbow			Right Elbow			Left Wrist			Right Wrist			Left ASIS			Right ASIS			S2			Left Knee			Right Knee			Left Ankle			Right Ankle			
		X1	Y1	Z1	X2	Y2	Z2	X3	Y3	Z3	X4	Y4	Z4	X5	Y5	Z5	X6	Y6	Z6	X7	Y7	Z7	X8	Y8	Z8	X9	Y9	Z9	X10	Y10	Z10	X11	Y11	Z11	X12	Y12	Z12	X13	Y13	Z13	X14	Y14	Z14	X15	Y15	Z15	X16	Y16	Z16	X17	Y17	Z17	X18	Y18	Z18	X19	Y19	Z19	

396	3.950	39.56903	1570.22290	1779.01978	167.08203	1609.44666	1621.33215				-55.72268	1583.93909	1663.16138	251.24062	1382.87415	1573.60620	-108.94047	1376.43164	1565.45618	78.62711	1271.04199	1706.61841				325.23035	1051.68591	1579.91016	-196.60422	1033.86841	1576.45825	320.35049	875.87836	1697.86084	-176.42664	868.84735	1737.10120	192.56047	912.63245	1698.75354	-57.85262	910.11975	1696.62402	72.76647	970.70581	1479.57996	226.07744	516.20697	1805.98657	-11.99836	474.47870	1667.58252	17.80673	146.46338	1596.14233	200.12244	223.65813	1641.24182	
397	3.960	40.32167	1569.87280	1787.02185	167.70459	1609.88721	1630.51526				-55.02276	1584.66113	1672.22607	251.83279	1383.02490	1581.43774	-108.38184	1376.75305	1574.25464	79.74310	1270.64417	1713.85559				326.61081	1052.04993	1587.59045	-196.46420	1033.59338	1587.82690	323.44360	875.82874	1706.24487	-175.83321	870.61682	1749.03577	192.61107	912.60315	1706.68945	-58.17748	910.90094	1705.04333	73.53900	970.85419	1487.41187	224.03177	518.48700	1817.23450	-11.71771	475.02203	1672.56250	18.10388	146.62842	1596.86975	201.79027	215.46832	1668.28320	
398	3.970	41.15982	1569.66748	1795.57935							-54.01996	1584.32629	1680.89673	252.03328	1383.03406	1588.71130	-107.88264	1376.69385	1582.95056	80.17554	1270.42639	1721.80420				327.71368	1051.68176	1594.45520	-196.41212	1034.32935	1597.11780	325.19516	875.60370	1712.14905	-174.58449	871.91626	1759.10779	193.02496	912.72571	1714.44226	-57.15896	910.09485	1711.25671	74.43997	970.87750	1494.41577	222.98099	519.30139	1827.02747	-10.98273	473.42923	1674.06653	18.30109	146.89018	1597.34717	202.82712	207.75458	1697.13062	
399	3.980	42.15341	1569.28333	1803.70190	168.97226	1609.60608	1647.53748				-53.62757	1584.40442	1690.00586	252.72908	1382.43713	1596.98938	-107.35715	1376.63818	1591.59644	80.70260	1270.16248	1729.38025				328.49457	1052.30383	1602.61206	-196.51601	1034.05408	1606.10315	326.59427	875.54919	1720.25818	-173.94798	873.18677	1770.09326	193.02756	912.65051	1722.74634	-56.75794	909.27209	1717.63416	75.47780	971.19928	1502.87769	221.17976	519.45758	1836.22644	-11.05711	473.84198	1678.06238	18.42248	147.12648	1597.82373	204.22299	200.21947	1725.57788	
400	3.990	43.05786	1568.75354	1812.00195	170.11266	1608.61023	1654.78894				-52.56176	1584.23352	1698.17627	253.04890	1382.35718	1604.76636	-106.92960	1376.47327	1600.03210	80.48009	1269.84668	1738.11438				329.50098	1051.60132	1609.22485	-196.55315	1034.40662	1614.81360	327.35419	876.79492	1728.29578	-172.66112	873.93176	1781.08374	193.45038	912.84106	1731.44604	-56.73534	909.14026	1726.37415	76.29424	971.15302	1510.28467	220.52591	519.36591	1844.76904	-10.04710	473.31244	1681.27173	18.59107	147.28606	1598.38098	205.50578	193.00262	1755.61206	
401	4.000	43.69640	1568.52881	1820.74365	170.99655	1607.65283	1661.62964				-51.70949	1582.68567	1705.75513	253.55154	1381.77332	1613.25830	-106.56998	1376.02661	1608.11304	81.61458	1268.79431	1746.05872				330.30576	1051.75317	1616.20776	-196.24205	1033.90393	1625.27771	329.53448	875.96759	1734.92847	-171.10226	875.31293	1792.35718	193.78093	912.30524	1740.19397	-56.57865	908.98962	1733.70642	78.18840	971.41943	1518.27222	219.05446	518.08508	1853.34204	-10.27176	472.91251	1684.03259	18.69652	147.50546	1598.75891	206.86295	186.65807	1781.75134	
402	4.010	44.55916	1567.62122	1829.23401							-51.24212	1582.67236	1714.11084	253.83714	1381.31982	1621.61316	-106.04283	1375.33691	1616.61829	82.77779	1267.74902	1753.87195				331.87982	1051.34424	1624.07520	-196.21758	1033.56213	1637.22424	331.89737	874.70428	1741.37012	-170.14842	876.45795	1803.59229	193.93440	911.07611	1747.87390	-56.30824	908.03754	1740.45227	79.18120	970.72046	1526.69189	217.69362	516.03162	1858.71777	-10.37986	471.71057	1686.46875	18.77176	147.70259	1599.15051	208.03786	182.24767	1808.77271	
403	4.020	45.75015	1566.94385	1837.03467	171.96292	1606.07849	1678.21973				-51.02496	1582.02454	1722.60254	254.33762	1380.47461	1629.66589	-105.41190	1374.70044	1625.32336	83.18334	1266.87354	1762.71082				332.85162	1050.46460	1631.36829	-195.84473	1032.24121	1644.94006	332.37741	875.78448	1751.42993	-168.46025	877.10175	1814.12708	193.77924	910.33997	1756.42346	-56.09702	907.94977	1748.00696	80.52711	970.50732	1534.75342	216.59981	513.12598	1865.97998	-10.07572	471.27090	1689.21350	18.94313	147.72495	1599.54932	208.92667	178.69606	1837.65393	
404	4.030	46.62467	1565.99963	1845.42981							-49.84761	1581.08789	1729.90735	255.12424	1379.58228	1638.22449	-104.69447	1373.69958	1633.68530	83.84615	1266.27905	1771.15088				333.98831	1049.67651	1638.63464	-195.62103	1032.37073	1654.28894	334.87173	874.35632	1757.94507	-166.88933	876.90546	1823.82056	193.63159	909.66534	1765.28040	-56.53553	907.53748	1756.95740	81.62657	969.36658	1542.59546	216.03136	510.89609	1871.52283	-10.24897	471.36987	1692.74097	19.03041	147.78694	1600.08850	209.73006	176.19807	1863.40540	
405	4.040	47.26981	1565.13916	1854.17737	173.15251	1604.46777	1695.04163				-48.95936	1579.26965	1738.47827	255.68916	1378.69324	1646.42493	-103.99078	1372.36743	1642.49231	83.70581	1265.69141	1780.47070				335.13739	1049.66724	1645.54846	-195.13495	1030.98071	1662.24854	337.82126	873.06000	1765.69385	-165.45461	876.26495	1833.18030	193.69656	908.34576	1775.11243	-55.92619	906.37030	1763.11365	82.91640	968.78082	1550.55432	215.40182	508.20639	1877.64087	-10.03443	469.59848	1695.64514	19.01332	147.92397	1600.57117	211.12233	174.20227	1890.30774	
406	4.050	48.60820	1564.01025	1861.65771	173.99774	1603.35107	1703.85706				-48.72765	1579.12695	1747.63220	256.53448	1377.44250	1653.95691	-103.48486	1371.10168	1649.66931	84.76791	1263.41931	1787.84290				336.41776	1048.39099	1654.04248	-194.28632	1028.78455	1672.99463	338.75903	873.09375	1773.39685	-164.15317	875.78149	1842.83032	193.97209	906.95435	1784.44470	-55.53867	905.54980	1770.14844	84.81561	967.33484	1559.98328	216.54095	506.24442	1884.22485	-10.53426	469.12204	1698.66748	19.06527	147.99670	1601.03796	211.68993	175.14140	1915.21814	
407	4.060	49.44072	1562.63574	1870.12854	174.93283	1601.59363	1711.34644				-47.63240	1578.09570	1755.75696	257.28174	1376.20459	1663.78809	-102.64680	1369.27759	1658.10486	85.44334	1261.89600	1796.02795				337.87408	1047.12769	1661.70105	-193.60382	1027.45215	1682.37463	341.57251	871.14661	1780.69080	-163.27902	875.98944	1853.91382	193.95625	905.42126	1794.09875	-55.92307	904.69257	1779.03088	85.67663	966.26904	1568.23083	215.10748	503.70480	1890.55725	-10.90157	468.45001	1702.63916	18.91760	148.00578	1601.77686	212.22389	175.90002	1939.15466	
408	4.070	50.33821	1561.53101	1878.63574	175.90385	1599.93030	1719.18958				-46.71460	1576.53967	1764.13000	258.23578	1374.87720	1672.24097	-101.86823	1367.52527	1666.18738	85.87468	1260.84399	1804.86035				339.29596	1045.69446	1669.46057	-192.67247	1025.36438	1690.80835	343.06659	870.26501	1789.12268	-161.78476	875.31146	1863.84058	194.18881	903.07373	1803.00232	-55.90059	902.89612	1786.44727	87.10268	964.97003	1576.42615	215.33258	501.11215	1896.55420	-10.77946	467.80154	1707.31775	18.77426	148.11830	1602.41541	211.94075	178.28511	1960.13391	
409	4.080	51.05051	1560.66174	1886.81311	176.77194	1598.76331	1726.98828				-45.57381	1575.18579	1772.21924	259.15991	1373.36011	1680.68481	-100.93508	1365.79285	1674.24695	86.08417	1259.54089	1813.87183				340.40485	1044.15186	1676.43408	-192.14186	1024.63501	1699.24109	344.66769	868.31104	1795.98987	-159.68741	873.74115	1872.44019	194.20258	900.44757	1811.89001	-55.21151	901.38000	1793.16956	89.00357	962.87860	1586.37390	214.57083	498.82434	1902.62769	-11.33225	466.59363	1711.16589	18.62875	148.35849	1603.11963	212.03043	179.59843	1979.88232	
410	4.090	51.90877	1560.27014	1895.26538	177.23260	1597.73474	1735.28638				-45.02876	1573.67859	1780.15601	260.06595	1371.59131	1690.02942	-99.77677	1363.93604	1682.54419	86.42963	1258.30518	1822.90967				342.12082	1042.45117	1686.31592	-190.73596	1021.88965	1706.70374	347.11960	865.92853	1803.24573	-158.38870	872.92883	1882.58093	194.52905	897.39417	1820.46460	-56.23487	900.51245	1802.97131	90.15438	961.19696	1594.74829	214.45032	497.71194	1910.29395	-11.30550	465.46631	1715.55078	18.56960	148.65883	1603.85229	212.87169	181.13292	1998.81702	
411	4.100	52.39914	1559.29749	1903.77039	177.88800	1596.37231	1742.92285				-44.53034	1572.02771	1788.82385	261.19562	1369.84485	1698.82788	-98.69673	1362.04797	1690.56494	87.50655	1256.48096	1831.34558				343.44543	1041.18420	1694.25171	-189.45363	1020.10815	1717.74280	349.13031	863.32666	1810.44214	-156.51685	871.39880	1891.88086	194.15076	895.76898	1830.19629	-55.62553	898.57312	1809.98999	91.46098	959.57495	1603.12927	212.50394	497.33746	1920.03918	-11.16194	464.77005	1720.49036	18.51402	148.95981	1604.59253	212.65614	183.92119	2016.05750	
412	4.110	53.40680	1558.51917	1911.82239	178.61992	1595.55566	1751.37903				-43.95827	1571.15686	1796.95520	262.31860	1368.00562	1708.47095	-97.69707	1360.31506	1698.69250	88.29980	1255.36292	1840.08582				344.66208	1039.51208	1702.60889	-188.19960	1018.44287	1725.70435	350.65915	862.12280	1819.66895	-154.69987	869.56006	1900.69470	194.47977	894.00989	1839.53442	-55.28292	896.15332	1817.76965	92.67949	958.11145	1612.15417	211.54922	495.69601	1927.24475	-11.13051	463.48953	1724.27478	18.23154	149.41035	1605.37036	212.40747	184.79031	2030.74512	
413	4.120	54.16599	1557.96265	1920.04211	179.54065	1594.28931	1759.37476				-42.76636	1569.31653	1804.18518	263.29639	1366.50928	1717.55054	-96.85973	1358.63367	1707.42871	88.56915	1253.74548	1850.09534				346.07135	1037.47412	1710.44031	-186.51276	1016.39838	1733.91260	352.12088	859.26599	1826.01746	-153.28302	868.35016	1909.62354	195.00471	892.03320	1849.08630	-55.62362	895.59711	1826.66577	94.41249	956.92334	1621.28528	210.49182	495.54288	1938.46497	-10.79298	462.18835	1729.17542	17.99669	149.83769	1606.06592	211.64978	184.80093	2042.74585	
414	4.130	54.82140	1556.85291	1928.87720	180.13794	1593.17407	1768.10742				-42.05110	1567.65186	1812.02832	264.45264	1364.89343	1726.59814	-95.84805	1357.30139	1714.82422	89.34357	1252.31030	1858.74121				347.42679	1035.69714	1720.09509	-184.52594	1013.98004	1742.58032	353.40591	857.80444	1834.18750	-151.15399	866.07538	1916.95032	195.09410	890.83844	1859.07336	-55.35831	893.64636	1835.58350	94.91492	955.48981	1628.60315	210.10684	493.92020	1947.54065	-10.59758	461.42996	1734.16089	17.83392	150.45210	1606.90222	210.84773	184.21980	2052.90112	
415	4.140	55.74615	1556.42200	1937.11438	181.17635	1591.90259	1776.42188				-41.25706	1566.92480	1820.49048	265.42700	1363.29822	1736.66150	-94.79060	1355.82629	1723.37134	89.94055	1250.68286	1867.99841				348.74811	1034.46021	1728.25012	-182.79356	1012.22784	1751.33472	354.52286	855.26801	1842.12622	-149.07942	863.72180	1924.44580	195.73959	889.35754	1868.31140	-54.87206	892.22430	1843.63318	95.76626	953.92255	1638.97620	209.41208	493.48486	1959.15454	-10.11643	459.78699	1738.97974	17.69160	151.02904	1607.90674	209.21294	181.70761	2059.34692	
416	4.150	56.57816	1555.53223	1944.98364	182.16956	1590.29944	1784.60034				-40.49002	1565.69824	1828.88989	266.72794	1361.84631	1746.55774	-93.66111	1354.36047	1731.95386	90.87069	1249.54626	1876.58093				349.81085	1033.24524	1737.05798	-180.99646	1011.64142	1756.79102	356.33627	853.30096	1848.76672	-147.35332	861.91888	1931.92444	196.32741	888.56183	1877.58545	-54.18261	890.47546	1852.27771	96.67612	953.49341	1648.74365	208.26826	492.85016	1969.82227	-9.99734	458.98932	1745.02197	17.47868	151.69998	1608.99243	207.62961	177.13496	2062.98560	
